<svg width="37" height="42" viewBox="0 0 37 42" fill="none" xmlns="http://www.w3.org/2000/svg">
<path d="M18.5001 38.9918L12.2887 41.096C12.068 41.1669 11.8582 41.2166 11.6592 41.2453C11.4605 41.274 11.2616 41.2883 11.0626 41.2883C10.0383 41.2883 9.14209 40.9273 8.37391 40.2051C7.60537 39.4833 7.22109 38.5639 7.22109 37.4469V26.6832L1.36937 17.2142C1.17033 16.8873 1.02459 16.5549 0.932156 16.2171C0.839364 15.8795 0.792969 15.5364 0.792969 15.1875C0.792969 14.8386 0.839364 14.4955 0.932156 14.1579C1.02459 13.8201 1.17033 13.4877 1.36937 13.1608L8.18584 2.12725C8.53434 1.54394 8.99671 1.09574 9.57294 0.782655C10.1492 0.469217 10.7752 0.3125 11.4509 0.3125H25.5492C26.225 0.3125 26.851 0.469217 27.4272 0.782655C28.0034 1.09574 28.4658 1.54394 28.8143 2.12725L35.6308 13.1608C35.8298 13.4877 35.9755 13.8201 36.068 14.1579C36.1608 14.4955 36.2072 14.8386 36.2072 15.1875C36.2072 15.5364 36.1608 15.8795 36.068 16.2171C35.9755 16.5549 35.8298 16.8873 35.6308 17.2142L29.779 26.6832V37.4469C29.779 38.5639 29.3948 39.4833 28.6262 40.2051C27.858 40.9273 26.9618 41.2883 25.9376 41.2883C25.7385 41.2883 25.5397 41.274 25.341 41.2453C25.1419 41.2166 24.9321 41.1669 24.7114 41.096L18.5001 38.9918ZM11.4509 26.875H25.5492C25.6583 26.875 25.7605 26.8477 25.8558 26.7932C25.951 26.7386 26.0328 26.6637 26.1012 26.5685L32.9378 15.5349C33.0058 15.4259 33.0398 15.31 33.0398 15.1875C33.0398 15.065 33.0058 14.9491 32.9378 14.8401L26.1012 3.80653C26.0328 3.71126 25.951 3.63635 25.8558 3.58181C25.7605 3.52727 25.6583 3.5 25.5492 3.5H11.4509C11.3418 3.5 11.2396 3.52727 11.1444 3.58181C11.0491 3.63635 10.9673 3.71126 10.8989 3.80653L4.06228 14.8401C3.99428 14.9491 3.96028 15.065 3.96028 15.1875C3.96028 15.31 3.99428 15.4259 4.06228 15.5349L10.8989 26.5685C10.9673 26.6637 11.0491 26.7386 11.1444 26.7932C11.2396 26.8477 11.3418 26.875 11.4509 26.875ZM16.2688 18.5997L24.1478 10.6676C24.4421 10.3517 24.8064 10.1992 25.2406 10.2102C25.6751 10.2212 26.0505 10.3737 26.3668 10.6676C26.6962 10.9839 26.863 11.3627 26.8673 11.804C26.8711 12.2453 26.7151 12.6239 26.3992 12.9398L17.6134 21.7463C17.2291 22.1306 16.7809 22.3227 16.2688 22.3227C15.7567 22.3227 15.3085 22.1306 14.9242 21.7463L10.6333 17.4761C10.3039 17.1599 10.1393 16.7844 10.1393 16.3499C10.1393 15.9157 10.3039 15.5337 10.6333 15.204C10.963 14.8742 11.3418 14.7094 11.7697 14.7094C12.1971 14.7094 12.5757 14.8742 12.9055 15.204L16.2688 18.5997Z" fill="white"/>
</svg>
