<svg width="42" height="36" viewBox="0 0 42 36" fill="none" xmlns="http://www.w3.org/2000/svg">
<path d="M38.0002 26V14.2L21.9002 22.95C21.3002 23.2833 20.6669 23.45 20.0002 23.45C19.3335 23.45 18.7002 23.2833 18.1002 22.95L1.2002 13.75C0.833529 13.55 0.575195 13.3 0.425195 13C0.275195 12.7 0.200195 12.3667 0.200195 12C0.200195 11.6333 0.275195 11.3 0.425195 11C0.575195 10.7 0.833529 10.45 1.2002 10.25L18.1002 1.04999C18.4002 0.883321 18.7085 0.758321 19.0252 0.674988C19.3419 0.591654 19.6669 0.549988 20.0002 0.549988C20.3335 0.549988 20.6585 0.591654 20.9752 0.674988C21.2919 0.758321 21.6002 0.883321 21.9002 1.04999L40.9502 11.45C41.2835 11.6167 41.5419 11.8583 41.7252 12.175C41.9085 12.4917 42.0002 12.8333 42.0002 13.2V26C42.0002 26.5667 41.8085 27.0417 41.4252 27.425C41.0419 27.8083 40.5669 28 40.0002 28C39.4335 28 38.9585 27.8083 38.5752 27.425C38.1919 27.0417 38.0002 26.5667 38.0002 26ZM18.1002 34.95L8.1002 29.55C7.43353 29.1833 6.91686 28.6833 6.5502 28.05C6.18353 27.4167 6.0002 26.7333 6.0002 26V18.4L18.1002 24.95C18.7002 25.2833 19.3335 25.45 20.0002 25.45C20.6669 25.45 21.3002 25.2833 21.9002 24.95L34.0002 18.4V26C34.0002 26.7333 33.8169 27.4167 33.4502 28.05C33.0835 28.6833 32.5669 29.1833 31.9002 29.55L21.9002 34.95C21.6002 35.1167 21.2919 35.2417 20.9752 35.325C20.6585 35.4083 20.3335 35.45 20.0002 35.45C19.6669 35.45 19.3419 35.4083 19.0252 35.325C18.7085 35.2417 18.4002 35.1167 18.1002 34.95Z" fill="white"/>
</svg>
